<svg width="430" height="932" viewBox="0 0 430 932" fill="none" xmlns="http://www.w3.org/2000/svg">
<g clip-path="url(#clip0_72_543)">
<rect width="430" height="932" transform="matrix(-1 0 0 -1 430 932)" fill="white"/>
<rect x="430" y="932" width="430" height="932" transform="rotate(-180 430 932)" fill="white"/>
<path d="M353 483.5C412.5 482 430.5 539 430.5 573.5L430.5 933H4.49994C4.49994 933 108 841 155 748.5C202 656 293.5 485 353 483.5Z" fill="#0B132B"/>
<path d="M305.067 568.409C309.237 571.288 319.7 568.777 322.572 564.615C323.866 562.741 323.23 560.65 320.871 559.021C318.306 557.251 315.683 557.429 313.626 556.009C311.551 554.577 310.782 552.058 308.24 550.303C305.88 548.674 303.699 548.822 302.406 550.696C299.534 554.857 300.896 565.531 305.067 568.409ZM312.334 574.425C311.596 576.663 312.447 579.029 314.234 579.711C316.021 580.393 318.068 579.131 318.806 576.894C319.544 574.656 318.693 572.289 316.906 571.608C315.119 570.926 313.072 572.187 312.334 574.425ZM307.114 572.47C305.188 571.786 302.826 573.469 301.838 576.23C300.85 578.991 301.612 581.783 303.539 582.468C305.465 583.152 307.827 581.469 308.815 578.708C309.803 575.947 309.041 573.154 307.114 572.47ZM291.249 563.846C292.521 565.275 295.034 565.231 296.865 563.748C298.696 562.264 299.149 559.903 297.878 558.474C296.607 557.044 294.093 557.088 292.262 558.572C290.431 560.055 289.978 562.417 291.249 563.846ZM300.544 567.935C299.22 566.376 296.339 566.654 294.108 568.557C291.877 570.459 291.141 573.265 292.464 574.824C293.787 576.383 296.668 576.104 298.899 574.202C301.13 572.299 301.867 569.493 300.544 567.935Z" fill="#6FFFE9"/>
<path d="M289.067 646.409C293.237 649.288 303.7 646.777 306.572 642.615C307.866 640.741 307.23 638.65 304.871 637.021C302.306 635.251 299.683 635.429 297.626 634.009C295.551 632.577 294.782 630.058 292.24 628.303C289.88 626.674 287.699 626.822 286.406 628.696C283.534 632.857 284.896 643.531 289.067 646.409ZM296.334 652.425C295.596 654.663 296.447 657.029 298.234 657.711C300.021 658.393 302.068 657.131 302.806 654.894C303.544 652.656 302.693 650.289 300.906 649.608C299.119 648.926 297.072 650.187 296.334 652.425ZM291.114 650.47C289.188 649.786 286.826 651.469 285.838 654.23C284.85 656.991 285.612 659.783 287.539 660.468C289.465 661.152 291.827 659.469 292.815 656.708C293.803 653.947 293.041 651.154 291.114 650.47ZM275.249 641.846C276.521 643.275 279.034 643.231 280.865 641.748C282.696 640.264 283.149 637.903 281.878 636.474C280.607 635.044 278.093 635.088 276.262 636.572C274.431 638.055 273.978 640.417 275.249 641.846ZM284.544 645.935C283.22 644.376 280.339 644.654 278.108 646.557C275.877 648.459 275.141 651.265 276.464 652.824C277.787 654.383 280.668 654.104 282.899 652.202C285.13 650.299 285.867 647.493 284.544 645.935Z" fill="#6FFFE9"/>
<path d="M221.067 689.409C225.237 692.288 235.7 689.777 238.572 685.615C239.866 683.741 239.23 681.65 236.871 680.021C234.306 678.251 231.683 678.429 229.626 677.009C227.551 675.577 226.782 673.058 224.24 671.303C221.88 669.674 219.699 669.822 218.406 671.696C215.534 675.857 216.896 686.531 221.067 689.409ZM228.334 695.425C227.596 697.663 228.447 700.029 230.234 700.711C232.021 701.393 234.068 700.131 234.806 697.894C235.544 695.656 234.693 693.289 232.906 692.608C231.119 691.926 229.072 693.187 228.334 695.425ZM223.114 693.47C221.188 692.786 218.826 694.469 217.838 697.23C216.85 699.991 217.612 702.783 219.539 703.468C221.465 704.152 223.827 702.469 224.815 699.708C225.803 696.947 225.041 694.154 223.114 693.47ZM207.249 684.846C208.521 686.275 211.034 686.231 212.865 684.748C214.696 683.264 215.149 680.903 213.878 679.474C212.607 678.044 210.093 678.088 208.262 679.572C206.431 681.055 205.978 683.417 207.249 684.846ZM216.544 688.935C215.22 687.376 212.339 687.654 210.108 689.557C207.877 691.459 207.141 694.265 208.464 695.824C209.787 697.383 212.668 697.104 214.899 695.202C217.13 693.299 217.867 690.493 216.544 688.935Z" fill="#6FFFE9"/>
<path d="M110.067 761.409C114.237 764.288 124.7 761.777 127.572 757.615C128.866 755.741 128.23 753.65 125.871 752.021C123.306 750.251 120.683 750.429 118.626 749.009C116.551 747.577 115.782 745.058 113.24 743.303C110.88 741.674 108.699 741.822 107.406 743.696C104.534 747.857 105.896 758.531 110.067 761.409ZM117.334 767.425C116.596 769.663 117.447 772.029 119.234 772.711C121.021 773.393 123.068 772.131 123.806 769.894C124.544 767.656 123.693 765.289 121.906 764.608C120.119 763.926 118.072 765.187 117.334 767.425ZM112.114 765.47C110.188 764.786 107.826 766.469 106.838 769.23C105.85 771.991 106.612 774.783 108.539 775.468C110.465 776.152 112.827 774.469 113.815 771.708C114.803 768.947 114.041 766.154 112.114 765.47ZM96.2493 756.846C97.5206 758.275 100.034 758.231 101.865 756.748C103.696 755.264 104.149 752.903 102.878 751.474C101.607 750.044 99.093 750.088 97.262 751.572C95.4315 753.055 94.978 755.417 96.2493 756.846ZM105.544 760.935C104.22 759.376 101.339 759.654 99.1083 761.557C96.8771 763.459 96.1411 766.265 97.4639 767.824C98.7867 769.383 101.668 769.104 103.899 767.202C106.13 765.299 106.867 762.493 105.544 760.935Z" fill="#0B132B"/>
<path d="M132.067 838.409C136.237 841.288 146.7 838.777 149.572 834.615C150.866 832.741 150.23 830.65 147.871 829.021C145.306 827.251 142.683 827.429 140.626 826.009C138.551 824.577 137.782 822.058 135.24 820.303C132.88 818.674 130.699 818.822 129.406 820.696C126.534 824.857 127.896 835.531 132.067 838.409ZM139.334 844.425C138.596 846.663 139.447 849.029 141.234 849.711C143.021 850.393 145.068 849.131 145.806 846.894C146.544 844.656 145.693 842.289 143.906 841.608C142.119 840.926 140.072 842.187 139.334 844.425ZM134.114 842.47C132.188 841.786 129.826 843.469 128.838 846.23C127.85 848.991 128.612 851.783 130.539 852.468C132.465 853.152 134.827 851.469 135.815 848.708C136.803 845.947 136.041 843.154 134.114 842.47ZM118.249 833.846C119.521 835.275 122.034 835.231 123.865 833.748C125.696 832.264 126.149 829.903 124.878 828.474C123.607 827.044 121.093 827.088 119.262 828.572C117.431 830.055 116.978 832.417 118.249 833.846ZM127.544 837.935C126.22 836.376 123.339 836.654 121.108 838.557C118.877 840.459 118.141 843.265 119.464 844.824C120.787 846.383 123.668 846.104 125.899 844.202C128.13 842.299 128.867 839.493 127.544 837.935Z" fill="#6FFFE9"/>
<path d="M36.0666 862.409C40.237 865.288 50.6999 862.777 53.5721 858.615C54.8657 856.741 54.2305 854.65 51.8709 853.021C49.306 851.251 46.6827 851.429 44.6257 850.009C42.5507 848.577 41.7819 846.058 39.2396 844.303C36.88 842.674 34.6992 842.822 33.4057 844.696C30.5335 848.857 31.8963 859.531 36.0666 862.409ZM43.3339 868.425C42.5957 870.663 43.4466 873.029 45.2339 873.711C47.0212 874.393 49.068 873.131 49.8062 870.894C50.5443 868.656 49.6934 866.289 47.9061 865.608C46.1189 864.926 44.072 866.187 43.3339 868.425ZM38.1144 866.47C36.1879 865.786 33.8256 867.469 32.838 870.23C31.8505 872.991 32.612 875.783 34.5386 876.468C36.4652 877.152 38.8275 875.469 39.815 872.708C40.8026 869.947 40.0409 867.154 38.1144 866.47ZM22.2493 857.846C23.5206 859.275 26.0344 859.231 27.8654 857.748C29.6959 856.264 30.1495 853.903 28.8781 852.474C27.6068 851.044 25.093 851.088 23.262 852.572C21.4315 854.055 20.978 856.417 22.2493 857.846ZM31.5436 861.935C30.2204 860.376 27.3394 860.654 25.1083 862.557C22.8771 864.459 22.1411 867.265 23.4639 868.824C24.7867 870.383 27.668 870.104 29.8992 868.202C32.1304 866.299 32.8667 863.493 31.5436 861.935Z" fill="#0B132B"/>
</g>
<defs>
<clipPath id="clip0_72_543">
<rect width="430" height="932" fill="white" transform="matrix(-1 0 0 -1 430 932)"/>
</clipPath>
</defs>
</svg>
