<svg width="430" height="932" viewBox="0 0 430 932" fill="none" xmlns="http://www.w3.org/2000/svg">
<g clip-path="url(#clip0_71_516)">
<rect width="430" height="932" fill="white"/>
<rect width="430" height="932" fill="white"/>
<path d="M77 448.5C17.5 450 -0.5 393 -0.5 358.5V-1H425.5C425.5 -1 322 91 275 183.5C228 276 136.5 447 77 448.5Z" fill="#0B132B"/>
<path d="M124.933 363.591C120.763 360.712 110.3 363.223 107.428 367.385C106.134 369.259 106.77 371.35 109.129 372.979C111.694 374.749 114.317 374.571 116.374 375.991C118.449 377.423 119.218 379.942 121.76 381.697C124.12 383.326 126.301 383.178 127.594 381.304C130.466 377.143 129.104 366.469 124.933 363.591ZM117.666 357.575C118.404 355.337 117.553 352.971 115.766 352.289C113.979 351.607 111.932 352.869 111.194 355.106C110.456 357.344 111.307 359.711 113.094 360.392C114.881 361.074 116.928 359.813 117.666 357.575ZM122.886 359.53C124.812 360.214 127.174 358.531 128.162 355.77C129.15 353.009 128.388 350.217 126.461 349.532C124.535 348.848 122.173 350.531 121.185 353.292C120.197 356.053 120.959 358.846 122.886 359.53ZM138.751 368.154C137.479 366.725 134.966 366.769 133.135 368.252C131.304 369.736 130.851 372.097 132.122 373.526C133.393 374.956 135.907 374.912 137.738 373.428C139.569 371.945 140.022 369.583 138.751 368.154ZM129.456 364.065C130.78 365.624 133.661 365.346 135.892 363.443C138.123 361.541 138.859 358.735 137.536 357.176C136.213 355.617 133.332 355.896 131.101 357.798C128.87 359.701 128.133 362.507 129.456 364.065Z" fill="#6FFFE9"/>
<path d="M140.933 285.591C136.763 282.712 126.3 285.223 123.428 289.385C122.134 291.259 122.77 293.35 125.129 294.979C127.694 296.749 130.317 296.571 132.374 297.991C134.449 299.423 135.218 301.942 137.76 303.697C140.12 305.326 142.301 305.178 143.594 303.304C146.466 299.143 145.104 288.469 140.933 285.591ZM133.666 279.575C134.404 277.337 133.553 274.971 131.766 274.289C129.979 273.607 127.932 274.869 127.194 277.106C126.456 279.344 127.307 281.711 129.094 282.392C130.881 283.074 132.928 281.813 133.666 279.575ZM138.886 281.53C140.812 282.214 143.174 280.531 144.162 277.77C145.15 275.009 144.388 272.217 142.461 271.532C140.535 270.848 138.173 272.531 137.185 275.292C136.197 278.053 136.959 280.846 138.886 281.53ZM154.751 290.154C153.479 288.725 150.966 288.769 149.135 290.252C147.304 291.736 146.851 294.097 148.122 295.526C149.393 296.956 151.907 296.912 153.738 295.428C155.569 293.945 156.022 291.583 154.751 290.154ZM145.456 286.065C146.78 287.624 149.661 287.346 151.892 285.443C154.123 283.541 154.859 280.735 153.536 279.176C152.213 277.617 149.332 277.896 147.101 279.798C144.87 281.701 144.133 284.507 145.456 286.065Z" fill="#6FFFE9"/>
<path d="M208.933 242.591C204.763 239.712 194.3 242.223 191.428 246.385C190.134 248.259 190.77 250.35 193.129 251.979C195.694 253.749 198.317 253.571 200.374 254.991C202.449 256.423 203.218 258.942 205.76 260.697C208.12 262.326 210.301 262.178 211.594 260.304C214.466 256.143 213.104 245.469 208.933 242.591ZM201.666 236.575C202.404 234.337 201.553 231.971 199.766 231.289C197.979 230.607 195.932 231.869 195.194 234.106C194.456 236.344 195.307 238.711 197.094 239.392C198.881 240.074 200.928 238.813 201.666 236.575ZM206.886 238.53C208.812 239.214 211.174 237.531 212.162 234.77C213.15 232.009 212.388 229.217 210.461 228.532C208.535 227.848 206.173 229.531 205.185 232.292C204.197 235.053 204.959 237.846 206.886 238.53ZM222.751 247.154C221.479 245.725 218.966 245.769 217.135 247.252C215.304 248.736 214.851 251.097 216.122 252.526C217.393 253.956 219.907 253.912 221.738 252.428C223.569 250.945 224.022 248.583 222.751 247.154ZM213.456 243.065C214.78 244.624 217.661 244.346 219.892 242.443C222.123 240.541 222.859 237.735 221.536 236.176C220.213 234.617 217.332 234.896 215.101 236.798C212.87 238.701 212.133 241.507 213.456 243.065Z" fill="#6FFFE9"/>
<path d="M319.933 170.591C315.763 167.712 305.3 170.223 302.428 174.385C301.134 176.259 301.77 178.35 304.129 179.979C306.694 181.749 309.317 181.571 311.374 182.991C313.449 184.423 314.218 186.942 316.76 188.697C319.12 190.326 321.301 190.178 322.594 188.304C325.466 184.143 324.104 173.469 319.933 170.591ZM312.666 164.575C313.404 162.337 312.553 159.971 310.766 159.289C308.979 158.607 306.932 159.869 306.194 162.106C305.456 164.344 306.307 166.711 308.094 167.392C309.881 168.074 311.928 166.813 312.666 164.575ZM317.886 166.53C319.812 167.214 322.174 165.531 323.162 162.77C324.15 160.009 323.388 157.217 321.461 156.532C319.535 155.848 317.173 157.531 316.185 160.292C315.197 163.053 315.959 165.846 317.886 166.53ZM333.751 175.154C332.479 173.725 329.966 173.769 328.135 175.252C326.304 176.736 325.851 179.097 327.122 180.526C328.393 181.956 330.907 181.912 332.738 180.428C334.569 178.945 335.022 176.583 333.751 175.154ZM324.456 171.065C325.78 172.624 328.661 172.346 330.892 170.443C333.123 168.541 333.859 165.735 332.536 164.176C331.213 162.617 328.332 162.896 326.101 164.798C323.87 166.701 323.133 169.507 324.456 171.065Z" fill="#0B132B"/>
<path d="M297.933 93.5906C293.763 90.7122 283.3 93.2234 280.428 97.3847C279.134 99.2589 279.77 101.35 282.129 102.979C284.694 104.749 287.317 104.571 289.374 105.991C291.449 107.423 292.218 109.942 294.76 111.697C297.12 113.326 299.301 113.178 300.594 111.304C303.466 107.143 302.104 96.4691 297.933 93.5906ZM290.666 87.5749C291.404 85.3372 290.553 82.9708 288.766 82.289C286.979 81.6072 284.932 82.8687 284.194 85.1064C283.456 87.3441 284.307 89.7106 286.094 90.3923C287.881 91.0741 289.928 89.8126 290.666 87.5749ZM295.886 89.5299C297.812 90.2143 300.174 88.5307 301.162 85.7698C302.15 83.009 301.388 80.2166 299.461 79.5322C297.535 78.8478 295.173 80.5314 294.185 83.2923C293.197 86.0532 293.959 88.8464 295.886 89.5299ZM311.751 98.154C310.479 96.7248 307.966 96.7688 306.135 98.2522C304.304 99.736 303.851 102.097 305.122 103.526C306.393 104.956 308.907 104.912 310.738 103.428C312.569 101.945 313.022 99.5833 311.751 98.154ZM302.456 94.0652C303.78 95.6238 306.661 95.3456 308.892 93.4431C311.123 91.5405 311.859 88.7353 310.536 87.1761C309.213 85.6169 306.332 85.8957 304.101 87.7982C301.87 89.7008 301.133 92.5066 302.456 94.0652Z" fill="#6FFFE9"/>
<path d="M393.933 69.5906C389.763 66.7122 379.3 69.2234 376.428 73.3847C375.134 75.2589 375.77 77.3504 378.129 78.979C380.694 80.7493 383.317 80.5715 385.374 81.9913C387.449 83.4234 388.218 85.9425 390.76 87.6972C393.12 89.3258 395.301 89.178 396.594 87.3038C399.466 83.1425 398.104 72.4691 393.933 69.5906ZM386.666 63.5749C387.404 61.3372 386.553 58.9708 384.766 58.289C382.979 57.6072 380.932 58.8687 380.194 61.1064C379.456 63.3441 380.307 65.7106 382.094 66.3923C383.881 67.0741 385.928 65.8126 386.666 63.5749ZM391.886 65.5299C393.812 66.2143 396.174 64.5307 397.162 61.7698C398.15 59.009 397.388 56.2166 395.461 55.5322C393.535 54.8478 391.173 56.5314 390.185 59.2923C389.197 62.0532 389.959 64.8464 391.886 65.5299ZM407.751 74.154C406.479 72.7248 403.966 72.7688 402.135 74.2522C400.304 75.736 399.851 78.0972 401.122 79.5265C402.393 80.9557 404.907 80.9117 406.738 79.4283C408.569 77.9445 409.022 75.5833 407.751 74.154ZM398.456 70.0652C399.78 71.6238 402.661 71.3456 404.892 69.4431C407.123 67.5405 407.859 64.7353 406.536 63.1761C405.213 61.6169 402.332 61.8957 400.101 63.7982C397.87 65.7008 397.133 68.5066 398.456 70.0652Z" fill="#0B132B"/>
</g>
<defs>
<clipPath id="clip0_71_516">
<rect width="430" height="932" fill="white"/>
</clipPath>
</defs>
</svg>
