<svg width="980" height="126" viewBox="0 0 980 126" fill="none" xmlns="http://www.w3.org/2000/svg">
<path d="M43.3681 126V15.66H0.168059V-8.58307e-06H104.388V15.66H61.1881V126H43.3681ZM134.793 126V-8.58307e-06H183.933C194.973 -8.58307e-06 204.393 1.73999 212.193 5.22C219.993 8.7 225.993 13.74 230.193 20.34C234.393 26.94 236.493 34.8 236.493 43.92C236.493 53.04 234.393 60.9 230.193 67.5C225.993 73.98 219.993 78.96 212.193 82.44C204.393 85.92 194.973 87.66 183.933 87.66H144.693L152.793 79.38V126H134.793ZM219.033 126L186.993 80.28H206.253L238.653 126H219.033ZM152.793 81.18L144.693 72.36H183.393C194.913 72.36 203.613 69.9 209.493 64.98C215.493 59.94 218.493 52.92 218.493 43.92C218.493 34.92 215.493 27.96 209.493 23.04C203.613 18.12 194.913 15.66 183.393 15.66H144.693L152.793 6.65999V81.18ZM276.374 126V-8.58307e-06H294.374V126H276.374ZM342.896 126V-8.58307e-06H392.036C403.076 -8.58307e-06 412.496 1.73999 420.296 5.22C428.096 8.7 434.096 13.74 438.296 20.34C442.496 26.94 444.596 34.8 444.596 43.92C444.596 53.04 442.496 60.9 438.296 67.5C434.096 73.98 428.096 79.02 420.296 82.62C412.496 86.1 403.076 87.84 392.036 87.84H352.796L360.896 79.38V126H342.896ZM360.896 81.18L352.796 72.18H391.496C403.016 72.18 411.716 69.72 417.596 64.8C423.596 59.88 426.596 52.92 426.596 43.92C426.596 34.92 423.596 27.96 417.596 23.04C411.716 18.12 403.016 15.66 391.496 15.66H352.796L360.896 6.65999V81.18Z" fill="#0B132B"/>
<path d="M510.779 126V8.27999H465.419V-8.58307e-06H565.319V8.27999H519.959V126H510.779ZM598.885 126V-8.58307e-06H644.065C654.625 -8.58307e-06 663.685 1.67999 671.245 5.03999C678.805 8.39999 684.625 13.26 688.705 19.62C692.785 25.86 694.825 33.48 694.825 42.48C694.825 51.24 692.785 58.8 688.705 65.16C684.625 71.4 678.805 76.26 671.245 79.74C663.685 83.1 654.625 84.78 644.065 84.78H603.925L608.065 80.46V126H598.885ZM686.365 126L653.605 80.28H664.045L696.805 126H686.365ZM608.065 81L603.925 76.68H644.065C657.625 76.68 667.885 73.68 674.845 67.68C681.925 61.68 685.465 53.28 685.465 42.48C685.465 31.56 681.925 23.16 674.845 17.28C667.885 11.28 657.625 8.27999 644.065 8.27999H603.925L608.065 3.78V81ZM718.175 126L776.135 -8.58307e-06H785.315L843.275 126H833.375L778.655 5.75999H782.615L728.075 126H718.175ZM739.415 90.54L742.475 82.8H817.895L820.955 90.54H739.415ZM884.869 94.14L884.509 82.62L964.789 -8.58307e-06H975.949L919.789 58.14L914.569 63.72L884.869 94.14ZM876.949 126V-8.58307e-06H886.129V126H876.949ZM968.569 126L911.869 61.2L918.169 54.54L979.729 126H968.569Z" fill="#6FFFE9"/>
</svg>
