<svg width="214" height="431" viewBox="0 0 214 431" fill="none" xmlns="http://www.w3.org/2000/svg">
<path d="M56.3925 112.785C69.521 58.4812 93.3908 35.8048 104.729 6.42449e-05C114.874 33.4178 139.937 60.8682 153.065 112.785C153.065 139.481 131.424 161.122 104.729 161.122C78.0335 161.122 56.3925 139.481 56.3925 112.785Z" fill="#6FFFE9"/>
<path d="M60.4209 382.664C73.5493 328.36 97.4191 305.683 108.757 269.879C118.902 303.296 143.965 330.747 157.094 382.664C157.094 409.359 135.453 431 108.757 431C82.0618 431 60.4209 409.359 60.4209 382.664Z" fill="#0B132B"/>
<path d="M96.6729 221.542C83.5445 275.846 59.6746 298.522 48.3364 334.327C38.1918 300.909 13.1284 273.459 0 221.542C0 194.847 21.641 173.206 48.3364 173.206C75.0319 173.206 96.6729 194.847 96.6729 221.542Z" fill="#0B132B"/>
<path d="M213.486 221.542C200.358 275.846 176.488 298.522 165.15 334.327C155.005 300.909 129.942 273.459 116.813 221.542C116.813 194.847 138.454 173.206 165.15 173.206C191.845 173.206 213.486 194.847 213.486 221.542Z" fill="#0B132B"/>
</svg>
