<svg width="436" height="56" viewBox="0 0 436 56" fill="none" xmlns="http://www.w3.org/2000/svg">
<path d="M19.7747 56V6.96H0.574684V-3.8147e-06H46.8947V6.96H27.6947V56H19.7747ZM60.4078 56V-3.8147e-06H82.2478C87.1545 -3.8147e-06 91.3411 0.773331 94.8078 2.32C98.2745 3.86667 100.941 6.10667 102.808 9.04C104.674 11.9733 105.608 15.4667 105.608 19.52C105.608 23.5733 104.674 27.0667 102.808 30C100.941 32.88 98.2745 35.0933 94.8078 36.64C91.3411 38.1867 87.1545 38.96 82.2478 38.96H64.8078L68.4078 35.28V56H60.4078ZM97.8478 56L83.6078 35.68H92.1678L106.568 56H97.8478ZM68.4078 36.08L64.8078 32.16H82.0078C87.1278 32.16 90.9945 31.0667 93.6078 28.88C96.2745 26.64 97.6078 23.52 97.6078 19.52C97.6078 15.52 96.2745 12.4267 93.6078 10.24C90.9945 8.05333 87.1278 6.96 82.0078 6.96H64.8078L68.4078 2.96V36.08ZM123.333 56V-3.8147e-06H131.333V56H123.333ZM152.898 56V-3.8147e-06H174.738C179.645 -3.8147e-06 183.832 0.773331 187.298 2.32C190.765 3.86667 193.432 6.10667 195.298 9.04C197.165 11.9733 198.098 15.4667 198.098 19.52C198.098 23.5733 197.165 27.0667 195.298 30C193.432 32.88 190.765 35.12 187.298 36.72C183.832 38.2667 179.645 39.04 174.738 39.04H157.298L160.898 35.28V56H152.898ZM160.898 36.08L157.298 32.08H174.498C179.618 32.08 183.485 30.9867 186.098 28.8C188.765 26.6133 190.098 23.52 190.098 19.52C190.098 15.52 188.765 12.4267 186.098 10.24C183.485 8.05333 179.618 6.96 174.498 6.96H157.298L160.898 2.96V36.08ZM227.513 56V3.68H207.353V-3.8147e-06H251.753V3.68H231.593V56H227.513ZM266.671 56V-3.8147e-06H286.751C291.444 -3.8147e-06 295.471 0.746663 298.831 2.24C302.191 3.73333 304.778 5.89333 306.591 8.72C308.404 11.4933 309.311 14.88 309.311 18.88C309.311 22.7733 308.404 26.1333 306.591 28.96C304.778 31.7333 302.191 33.8933 298.831 35.44C295.471 36.9333 291.444 37.68 286.751 37.68H268.911L270.751 35.76V56H266.671ZM305.551 56L290.991 35.68H295.631L310.191 56H305.551ZM270.751 36L268.911 34.08H286.751C292.778 34.08 297.338 32.7467 300.431 30.08C303.578 27.4133 305.151 23.68 305.151 18.88C305.151 14.0267 303.578 10.2933 300.431 7.68C297.338 5.01333 292.778 3.68 286.751 3.68H268.911L270.751 1.68V36ZM319.689 56L345.449 -3.8147e-06H349.529L375.289 56H370.889L346.569 2.56H348.329L324.089 56H319.689ZM329.129 40.24L330.489 36.8H364.009L365.369 40.24H329.129ZM393.775 41.84L393.615 36.72L429.295 -3.8147e-06H434.255L409.295 25.84L406.975 28.32L393.775 41.84ZM390.255 56V-3.8147e-06H394.335V56H390.255ZM430.975 56L405.775 27.2L408.575 24.24L435.935 56H430.975Z" fill="black"/>
</svg>
