<svg width="1800" height="1798" viewBox="0 0 1800 1798" fill="none" xmlns="http://www.w3.org/2000/svg">
<path fill-rule="evenodd" clip-rule="evenodd" d="M1020.52 502.165L896.223 3.40924V484.276C851.869 484.63 809.174 491.947 769.177 505.186L787.367 432.195C787.475 432.17 787.583 432.145 787.691 432.12L895.381 0L1003.08 432.157C1177.57 472.679 1315.14 609.456 1356.81 783.503L1293.1 767.626C1250.77 640.782 1148.83 541.212 1020.52 502.165ZM787.365 432.195C611.99 472.99 473.939 611.023 433.117 786.387L505.897 768.249C547.053 644.261 645.142 546.244 769.174 505.187L787.365 432.195ZM1356.81 783.506L1293.1 767.629C1306.49 807.735 1313.91 850.566 1314.32 895.073H1796.05L1799.06 894.324L1356.97 784.15L1356.89 783.831L1356.81 783.506ZM1356.98 1004.6L1296.51 1019.67C1256.48 1151.53 1152.53 1255.59 1020.73 1295.77L1005.71 1356.02L1020.72 1295.77C982.408 1307.45 941.74 1313.74 899.603 1313.74C897.865 1313.74 896.129 1313.73 894.396 1313.71V1794.05L895.38 1798L1005.51 1356.07L1005.71 1356.02L1005.71 1356.02C1179.18 1314.69 1315.72 1178.1 1356.98 1004.6ZM769.342 1292.87L785.092 1356.07C610.745 1314.6 473.679 1176.94 433.08 1002.25L502.672 1019.6C541.763 1148.43 641.862 1250.73 769.342 1292.87ZM0 894.325L4.01449 893.324H484.904C484.879 895.213 484.866 897.105 484.866 899C484.866 940.943 491.092 981.432 502.671 1019.59L21.5705 899.7L0 894.325Z" fill="#051923"/>
<path fill-rule="evenodd" clip-rule="evenodd" d="M900.408 1182.4C1056.67 1182.4 1183.34 1055.73 1183.34 899.469C1183.34 743.21 1056.67 616.537 900.408 616.537C744.149 616.537 617.477 743.21 617.477 899.469C617.477 1055.73 744.149 1182.4 900.408 1182.4ZM847.438 752.829C871.148 713.443 928.251 713.443 951.961 752.829L1092.32 985.986C1116.79 1026.64 1087.51 1078.45 1040.06 1078.45H1038.04C1036.52 1076.12 1034.45 1074.16 1032.01 1072.77L925.779 1012.07V906.549C925.779 891.897 913.855 879.974 899.203 879.974C884.551 879.974 872.627 891.897 872.627 906.549V1012.07L766.395 1072.77C763.959 1074.17 761.911 1076.12 760.399 1078.45H759.343C711.889 1078.45 682.607 1026.64 707.082 985.986L847.438 752.829ZM899.203 910.978C896.854 910.978 894.6 910.045 892.939 908.383C891.278 906.722 890.344 904.469 890.344 902.12C890.344 899.77 891.278 897.517 892.939 895.856C894.6 894.195 896.854 893.261 899.203 893.261C901.553 893.261 903.806 894.195 905.467 895.856C907.128 897.517 908.062 899.77 908.062 902.12C908.062 904.469 907.128 906.722 905.467 908.383C903.806 910.045 901.553 910.978 899.203 910.978Z" fill="#A2D6F6"/>
</svg>
