<svg width="7326" height="1798" viewBox="0 0 7326 1798" fill="none" xmlns="http://www.w3.org/2000/svg">
<path d="M1667.52 1711L1433.52 1011H1536.52L1751.52 1657H1699.52L1922.52 1011H2014.52L2232.52 1657H2182.52L2400.52 1011H2495.52L2261.52 1711H2156.52L1952.52 1112H1979.52L1774.52 1711H1667.52ZM2892.8 1711V1599L2887.8 1578V1387C2887.8 1346.33 2875.8 1315 2851.8 1293C2828.47 1270.33 2793.14 1259 2745.8 1259C2714.47 1259 2683.8 1264.33 2653.8 1275C2623.8 1285 2598.47 1298.67 2577.8 1316L2537.8 1244C2565.14 1222 2597.8 1205.33 2635.8 1194C2674.47 1182 2714.8 1176 2756.8 1176C2829.47 1176 2885.47 1193.67 2924.8 1229C2964.14 1264.33 2983.8 1318.33 2983.8 1391V1711H2892.8ZM2718.8 1717C2679.47 1717 2644.8 1710.33 2614.8 1697C2585.47 1683.67 2562.8 1665.33 2546.8 1642C2530.8 1618 2522.8 1591 2522.8 1561C2522.8 1532.33 2529.47 1506.33 2542.8 1483C2556.8 1459.67 2579.14 1441 2609.8 1427C2641.14 1413 2683.14 1406 2735.8 1406H2903.8V1475H2739.8C2691.8 1475 2659.47 1483 2642.8 1499C2626.14 1515 2617.8 1534.33 2617.8 1557C2617.8 1583 2628.14 1604 2648.8 1620C2669.47 1635.33 2698.14 1643 2734.8 1643C2770.8 1643 2802.14 1635 2828.8 1619C2856.14 1603 2875.8 1579.67 2887.8 1549L2906.8 1615C2894.14 1646.33 2871.8 1671.33 2839.8 1690C2807.8 1708 2767.47 1717 2718.8 1717ZM3444.46 1176C3487.79 1176 3525.79 1184.33 3558.46 1201C3591.79 1217.67 3617.79 1243 3636.46 1277C3655.13 1311 3664.46 1354 3664.46 1406V1711H3568.46V1417C3568.46 1365.67 3555.79 1327 3530.46 1301C3505.79 1275 3470.79 1262 3425.46 1262C3391.46 1262 3361.79 1268.67 3336.46 1282C3311.13 1295.33 3291.46 1315 3277.46 1341C3264.13 1367 3257.46 1399.33 3257.46 1438V1711H3161.46V1181H3253.46V1324L3238.46 1286C3255.79 1251.33 3282.46 1224.33 3318.46 1205C3354.46 1185.67 3396.46 1176 3444.46 1176ZM4061.13 1717C4009.79 1717 3963.79 1705.67 3923.13 1683C3883.13 1660.33 3851.46 1628.67 3828.13 1588C3804.79 1547.33 3793.13 1500 3793.13 1446C3793.13 1392 3804.79 1345 3828.13 1305C3851.46 1264.33 3883.13 1232.67 3923.13 1210C3963.79 1187.33 4009.79 1176 4061.13 1176C4105.79 1176 4146.13 1186 4182.13 1206C4218.13 1226 4246.79 1256 4268.13 1296C4290.13 1336 4301.13 1386 4301.13 1446C4301.13 1506 4290.46 1556 4269.13 1596C4248.46 1636 4220.13 1666.33 4184.13 1687C4148.13 1707 4107.13 1717 4061.13 1717ZM4069.13 1633C4102.46 1633 4132.46 1625.33 4159.13 1610C4186.46 1594.67 4207.79 1573 4223.13 1545C4239.13 1516.33 4247.13 1483.33 4247.13 1446C4247.13 1408 4239.13 1375.33 4223.13 1348C4207.79 1320 4186.46 1298.33 4159.13 1283C4132.46 1267.67 4102.46 1260 4069.13 1260C4035.13 1260 4004.79 1267.67 3978.13 1283C3951.46 1298.33 3930.13 1320 3914.13 1348C3898.13 1375.33 3890.13 1408 3890.13 1446C3890.13 1483.33 3898.13 1516.33 3914.13 1545C3930.13 1573 3951.46 1594.67 3978.13 1610C4004.79 1625.33 4035.13 1633 4069.13 1633ZM4250.13 1711V1568L4256.12 1445L4246.13 1322V969H4342.13V1711H4250.13ZM4759.77 1717C4703.1 1717 4653.1 1705.33 4609.77 1682C4567.1 1658.67 4533.77 1626.67 4509.77 1586C4486.43 1545.33 4474.77 1498.67 4474.77 1446C4474.77 1393.33 4486.1 1346.67 4508.77 1306C4532.1 1265.33 4563.77 1233.67 4603.77 1211C4644.43 1187.67 4690.1 1176 4740.77 1176C4792.1 1176 4837.43 1187.33 4876.77 1210C4916.1 1232.67 4946.77 1264.67 4968.77 1306C4991.43 1346.67 5002.77 1394.33 5002.77 1449C5002.77 1453 5002.43 1457.67 5001.77 1463C5001.77 1468.33 5001.43 1473.33 5000.77 1478H4549.77V1409H4950.77L4911.77 1433C4912.43 1399 4905.43 1368.67 4890.77 1342C4876.1 1315.33 4855.77 1294.67 4829.77 1280C4804.43 1264.67 4774.77 1257 4740.77 1257C4707.43 1257 4677.77 1264.67 4651.77 1280C4625.77 1294.67 4605.43 1315.67 4590.77 1343C4576.1 1369.67 4568.77 1400.33 4568.77 1435V1451C4568.77 1486.33 4576.77 1518 4592.77 1546C4609.43 1573.33 4632.43 1594.67 4661.77 1610C4691.1 1625.33 4724.77 1633 4762.77 1633C4794.1 1633 4822.43 1627.67 4847.77 1617C4873.77 1606.33 4896.43 1590.33 4915.77 1569L4968.77 1631C4944.77 1659 4914.77 1680.33 4878.77 1695C4843.43 1709.67 4803.77 1717 4759.77 1717ZM5136.07 1711V1181H5228.07V1325L5219.07 1289C5233.74 1252.33 5258.4 1224.33 5293.07 1205C5327.74 1185.67 5370.4 1176 5421.07 1176V1269C5417.07 1268.33 5413.07 1268 5409.07 1268C5405.74 1268 5402.4 1268 5399.07 1268C5347.74 1268 5307.07 1283.33 5277.07 1314C5247.07 1344.67 5232.07 1389 5232.07 1447V1711H5136.07ZM5539.39 1711V969H5635.39V1711H5539.39ZM6041.69 1717C5996.35 1717 5956.35 1708.67 5921.69 1692C5887.69 1675.33 5861.02 1650 5841.69 1616C5823.02 1581.33 5813.69 1538 5813.69 1486V1181H5909.69V1475C5909.69 1527 5922.02 1566 5946.69 1592C5972.02 1618 6007.35 1631 6052.69 1631C6086.02 1631 6115.02 1624.33 6139.69 1611C6164.35 1597 6183.35 1577 6196.69 1551C6210.02 1524.33 6216.69 1492.33 6216.69 1455V1181H6312.69V1711H6221.69V1568L6236.69 1606C6219.35 1641.33 6193.35 1668.67 6158.69 1688C6124.02 1707.33 6085.02 1717 6041.69 1717ZM6647.45 1717C6603.45 1717 6561.45 1711 6521.45 1699C6482.11 1687 6451.11 1672.33 6428.45 1655L6468.45 1579C6491.11 1594.33 6519.11 1607.33 6552.45 1618C6585.78 1628.67 6619.78 1634 6654.45 1634C6699.11 1634 6731.11 1627.67 6750.45 1615C6770.45 1602.33 6780.45 1584.67 6780.45 1562C6780.45 1545.33 6774.45 1532.33 6762.45 1523C6750.45 1513.67 6734.45 1506.67 6714.45 1502C6695.11 1497.33 6673.45 1493.33 6649.45 1490C6625.45 1486 6601.45 1481.33 6577.45 1476C6553.45 1470 6531.45 1462 6511.45 1452C6491.45 1441.33 6475.45 1427 6463.45 1409C6451.45 1390.33 6445.45 1365.67 6445.45 1335C6445.45 1303 6454.45 1275 6472.45 1251C6490.45 1227 6515.78 1208.67 6548.45 1196C6581.78 1182.67 6621.11 1176 6666.45 1176C6701.11 1176 6736.11 1180.33 6771.45 1189C6807.45 1197 6836.78 1208.67 6859.45 1224L6818.45 1300C6794.45 1284 6769.45 1273 6743.45 1267C6717.45 1261 6691.45 1258 6665.45 1258C6623.45 1258 6592.11 1265 6571.45 1279C6550.78 1292.33 6540.45 1309.67 6540.45 1331C6540.45 1349 6546.45 1363 6558.45 1373C6571.11 1382.33 6587.11 1389.67 6606.45 1395C6626.45 1400.33 6648.45 1405 6672.45 1409C6696.45 1412.33 6720.45 1417 6744.45 1423C6768.45 1428.33 6790.11 1436 6809.45 1446C6829.45 1456 6845.45 1470 6857.45 1488C6870.11 1506 6876.45 1530 6876.45 1560C6876.45 1592 6867.11 1619.67 6848.45 1643C6829.78 1666.33 6803.45 1684.67 6769.45 1698C6735.45 1710.67 6694.78 1717 6647.45 1717ZM7178.42 1717C7125.09 1717 7083.76 1702.67 7054.42 1674C7025.09 1645.33 7010.42 1604.33 7010.42 1551V1065H7106.42V1547C7106.42 1575.67 7113.42 1597.67 7127.42 1613C7142.09 1628.33 7162.76 1636 7189.42 1636C7219.42 1636 7244.42 1627.67 7264.42 1611L7294.42 1680C7279.76 1692.67 7262.09 1702 7241.42 1708C7221.42 1714 7200.42 1717 7178.42 1717ZM6920.42 1260V1181H7258.42V1260H6920.42Z" fill="#001F3F"/>
<path fill-rule="evenodd" clip-rule="evenodd" d="M1020.52 502.165L896.223 3.40924V484.276C851.869 484.63 809.174 491.947 769.177 505.186L787.367 432.195C787.475 432.17 787.583 432.145 787.691 432.12L895.381 0L1003.08 432.157C1177.57 472.679 1315.14 609.456 1356.81 783.503L1293.1 767.626C1250.77 640.782 1148.83 541.212 1020.52 502.165ZM787.365 432.195C611.99 472.99 473.939 611.023 433.117 786.387L505.897 768.249C547.053 644.261 645.142 546.244 769.174 505.187L787.365 432.195ZM1356.81 783.506L1293.1 767.629C1306.49 807.735 1313.91 850.566 1314.32 895.073H1796.05L1799.06 894.324L1356.97 784.15L1356.89 783.831L1356.81 783.506ZM1356.98 1004.6L1296.51 1019.67C1256.48 1151.53 1152.53 1255.59 1020.73 1295.77L1005.71 1356.02L1020.72 1295.77C982.408 1307.45 941.74 1313.74 899.603 1313.74C897.865 1313.74 896.129 1313.73 894.396 1313.71V1794.05L895.38 1798L1005.51 1356.07L1005.71 1356.02L1005.71 1356.02C1179.18 1314.69 1315.72 1178.1 1356.98 1004.6ZM769.342 1292.87L785.092 1356.07C610.745 1314.6 473.679 1176.94 433.08 1002.25L502.672 1019.6C541.763 1148.43 641.862 1250.73 769.342 1292.87ZM0 894.325L4.01449 893.324H484.904C484.879 895.213 484.866 897.105 484.866 899C484.866 940.943 491.092 981.432 502.671 1019.59L21.5705 899.7L0 894.325Z" fill="#051923"/>
<path fill-rule="evenodd" clip-rule="evenodd" d="M900.408 1182.4C1056.67 1182.4 1183.34 1055.73 1183.34 899.469C1183.34 743.21 1056.67 616.537 900.408 616.537C744.149 616.537 617.477 743.21 617.477 899.469C617.477 1055.73 744.149 1182.4 900.408 1182.4ZM847.438 752.829C871.148 713.443 928.251 713.443 951.961 752.829L1092.32 985.986C1116.79 1026.64 1087.51 1078.45 1040.06 1078.45H1038.04C1036.52 1076.12 1034.45 1074.16 1032.01 1072.77L925.779 1012.07V906.549C925.779 891.897 913.855 879.974 899.203 879.974C884.551 879.974 872.627 891.897 872.627 906.549V1012.07L766.395 1072.77C763.959 1074.17 761.911 1076.12 760.399 1078.45H759.343C711.889 1078.45 682.607 1026.64 707.082 985.986L847.438 752.829ZM899.203 910.978C896.854 910.978 894.6 910.045 892.939 908.383C891.278 906.722 890.344 904.469 890.344 902.12C890.344 899.77 891.278 897.517 892.939 895.856C894.6 894.195 896.854 893.261 899.203 893.261C901.553 893.261 903.806 894.195 905.467 895.856C907.128 897.517 908.062 899.77 908.062 902.12C908.062 904.469 907.128 906.722 905.467 908.383C903.806 910.045 901.553 910.978 899.203 910.978Z" fill="#A2D6F6"/>
</svg>
