<svg width="5862" height="748" viewBox="0 0 5862 748" fill="none" xmlns="http://www.w3.org/2000/svg">
<path d="M234.516 742L0.515627 42H103.516L318.516 688H266.516L489.516 42H581.516L799.516 688H749.516L967.516 42H1062.52L828.516 742H723.516L519.516 143H546.516L341.516 742H234.516ZM1459.8 742V630L1454.8 609V418C1454.8 377.333 1442.8 346 1418.8 324C1395.47 301.333 1360.14 290 1312.8 290C1281.47 290 1250.8 295.333 1220.8 306C1190.8 316 1165.47 329.667 1144.8 347L1104.8 275C1132.14 253 1164.8 236.333 1202.8 225C1241.47 213 1281.8 207 1323.8 207C1396.47 207 1452.47 224.667 1491.8 260C1531.14 295.333 1550.8 349.333 1550.8 422V742H1459.8ZM1285.8 748C1246.47 748 1211.8 741.333 1181.8 728C1152.47 714.667 1129.8 696.333 1113.8 673C1097.8 649 1089.8 622 1089.8 592C1089.8 563.333 1096.47 537.333 1109.8 514C1123.8 490.667 1146.14 472 1176.8 458C1208.14 444 1250.14 437 1302.8 437H1470.8V506H1306.8C1258.8 506 1226.47 514 1209.8 530C1193.14 546 1184.8 565.333 1184.8 588C1184.8 614 1195.14 635 1215.8 651C1236.47 666.333 1265.14 674 1301.8 674C1337.8 674 1369.14 666 1395.8 650C1423.14 634 1442.8 610.667 1454.8 580L1473.8 646C1461.14 677.333 1438.8 702.333 1406.8 721C1374.8 739 1334.47 748 1285.8 748ZM2011.46 207C2054.79 207 2092.79 215.333 2125.46 232C2158.79 248.667 2184.79 274 2203.46 308C2222.13 342 2231.46 385 2231.46 437V742H2135.46V448C2135.46 396.667 2122.79 358 2097.46 332C2072.79 306 2037.79 293 1992.46 293C1958.46 293 1928.79 299.667 1903.46 313C1878.13 326.333 1858.46 346 1844.46 372C1831.13 398 1824.46 430.333 1824.46 469V742H1728.46V212H1820.46V355L1805.46 317C1822.79 282.333 1849.46 255.333 1885.46 236C1921.46 216.667 1963.46 207 2011.46 207ZM2628.13 748C2576.79 748 2530.79 736.667 2490.13 714C2450.13 691.333 2418.46 659.667 2395.13 619C2371.79 578.333 2360.13 531 2360.13 477C2360.13 423 2371.79 376 2395.13 336C2418.46 295.333 2450.13 263.667 2490.13 241C2530.79 218.333 2576.79 207 2628.13 207C2672.79 207 2713.13 217 2749.13 237C2785.13 257 2813.79 287 2835.13 327C2857.13 367 2868.13 417 2868.13 477C2868.13 537 2857.46 587 2836.13 627C2815.46 667 2787.13 697.333 2751.13 718C2715.13 738 2674.13 748 2628.13 748ZM2636.13 664C2669.46 664 2699.46 656.333 2726.13 641C2753.46 625.667 2774.79 604 2790.13 576C2806.13 547.333 2814.13 514.333 2814.13 477C2814.13 439 2806.13 406.333 2790.13 379C2774.79 351 2753.46 329.333 2726.13 314C2699.46 298.667 2669.46 291 2636.13 291C2602.13 291 2571.79 298.667 2545.13 314C2518.46 329.333 2497.13 351 2481.13 379C2465.13 406.333 2457.13 439 2457.13 477C2457.13 514.333 2465.13 547.333 2481.13 576C2497.13 604 2518.46 625.667 2545.13 641C2571.79 656.333 2602.13 664 2636.13 664ZM2817.13 742V599L2823.12 476L2813.13 353V-4.33922e-05H2909.13V742H2817.13ZM3326.77 748C3270.1 748 3220.1 736.333 3176.77 713C3134.1 689.667 3100.77 657.667 3076.77 617C3053.43 576.333 3041.77 529.667 3041.77 477C3041.77 424.333 3053.1 377.667 3075.77 337C3099.1 296.333 3130.77 264.667 3170.77 242C3211.43 218.667 3257.1 207 3307.77 207C3359.1 207 3404.43 218.333 3443.77 241C3483.1 263.667 3513.77 295.667 3535.77 337C3558.43 377.667 3569.77 425.333 3569.77 480C3569.77 484 3569.43 488.667 3568.77 494C3568.77 499.333 3568.43 504.333 3567.77 509H3116.77V440H3517.77L3478.77 464C3479.43 430 3472.43 399.667 3457.77 373C3443.1 346.333 3422.77 325.667 3396.77 311C3371.43 295.667 3341.77 288 3307.77 288C3274.43 288 3244.77 295.667 3218.77 311C3192.77 325.667 3172.43 346.667 3157.77 374C3143.1 400.667 3135.77 431.333 3135.77 466V482C3135.77 517.333 3143.77 549 3159.77 577C3176.43 604.333 3199.43 625.667 3228.77 641C3258.1 656.333 3291.77 664 3329.77 664C3361.1 664 3389.43 658.667 3414.77 648C3440.77 637.333 3463.43 621.333 3482.77 600L3535.77 662C3511.77 690 3481.77 711.333 3445.77 726C3410.43 740.667 3370.77 748 3326.77 748ZM3703.07 742V212H3795.07V356L3786.07 320C3800.74 283.333 3825.4 255.333 3860.07 236C3894.74 216.667 3937.4 207 3988.07 207V300C3984.07 299.333 3980.07 299 3976.07 299C3972.74 299 3969.4 299 3966.07 299C3914.74 299 3874.07 314.333 3844.07 345C3814.07 375.667 3799.07 420 3799.07 478V742H3703.07ZM4106.39 742V-4.33922e-05H4202.39V742H4106.39ZM4608.69 748C4563.35 748 4523.35 739.667 4488.69 723C4454.69 706.333 4428.02 681 4408.69 647C4390.02 612.333 4380.69 569 4380.69 517V212H4476.69V506C4476.69 558 4489.02 597 4513.69 623C4539.02 649 4574.35 662 4619.69 662C4653.02 662 4682.02 655.333 4706.69 642C4731.35 628 4750.35 608 4763.69 582C4777.02 555.333 4783.69 523.333 4783.69 486V212H4879.69V742H4788.69V599L4803.69 637C4786.35 672.333 4760.35 699.667 4725.69 719C4691.02 738.333 4652.02 748 4608.69 748ZM5214.45 748C5170.45 748 5128.45 742 5088.45 730C5049.11 718 5018.11 703.333 4995.45 686L5035.45 610C5058.11 625.333 5086.11 638.333 5119.45 649C5152.78 659.667 5186.78 665 5221.45 665C5266.11 665 5298.11 658.667 5317.45 646C5337.45 633.333 5347.45 615.667 5347.45 593C5347.45 576.333 5341.45 563.333 5329.45 554C5317.45 544.667 5301.45 537.667 5281.45 533C5262.11 528.333 5240.45 524.333 5216.45 521C5192.45 517 5168.45 512.333 5144.45 507C5120.45 501 5098.45 493 5078.45 483C5058.45 472.333 5042.45 458 5030.45 440C5018.45 421.333 5012.45 396.667 5012.45 366C5012.45 334 5021.45 306 5039.45 282C5057.45 258 5082.78 239.667 5115.45 227C5148.78 213.667 5188.11 207 5233.45 207C5268.11 207 5303.11 211.333 5338.45 220C5374.45 228 5403.78 239.667 5426.45 255L5385.45 331C5361.45 315 5336.45 304 5310.45 298C5284.45 292 5258.45 289 5232.45 289C5190.45 289 5159.11 296 5138.45 310C5117.78 323.333 5107.45 340.667 5107.45 362C5107.45 380 5113.45 394 5125.45 404C5138.11 413.333 5154.11 420.667 5173.45 426C5193.45 431.333 5215.45 436 5239.45 440C5263.45 443.333 5287.45 448 5311.45 454C5335.45 459.333 5357.11 467 5376.45 477C5396.45 487 5412.45 501 5424.45 519C5437.11 537 5443.45 561 5443.45 591C5443.45 623 5434.11 650.667 5415.45 674C5396.78 697.333 5370.45 715.667 5336.45 729C5302.45 741.667 5261.78 748 5214.45 748ZM5745.42 748C5692.09 748 5650.76 733.667 5621.42 705C5592.09 676.333 5577.42 635.333 5577.42 582V96H5673.42V578C5673.42 606.667 5680.42 628.667 5694.42 644C5709.09 659.333 5729.76 667 5756.42 667C5786.42 667 5811.42 658.667 5831.42 642L5861.42 711C5846.76 723.667 5829.09 733 5808.42 739C5788.42 745 5767.42 748 5745.42 748ZM5487.42 291V212H5825.42V291H5487.42Z" fill="#001F3F"/>
</svg>
